<?xml version="1.0" encoding="UTF-8" standalone="no"?>
<!-- Created with Inkscape (http://www.inkscape.org/) -->

<svg
   version="1.1"
   id="svg105"
   width="1000"
   height="1000"
   viewBox="0 0 1000 1000"
   xmlns="http://www.w3.org/2000/svg"
   xmlns:svg="http://www.w3.org/2000/svg">
  <defs
     id="defs109" />
  <g
     id="g111">
    <path
       style="fill:#1092fb;stroke:none"
       d="m 482.59585,55.07566 c -22.289,2.9265 -44.881,3.449 -67,8.2376 -100.34,21.7234 -195.551,72.173 -260.193,153.338 -87.770101,110.205 -119.270301,258.614 -85.331701,395 12.650101,50.836 35.398701,96.343 63.829701,140 21.926,33.669 49.144,64.445 79.695,90.57197 54.879,46.932 119.24,78.362 189,95.801 51.594,12.899 106.305,16.274 159,9.345 48.778,-6.414 98.593,-19.492 143,-40.976 142.596,-68.98797 235.912,-207.98797 250.83,-364.74197 11.656,-122.476 -28.558,-253.43 -112.919,-344 -60.995,-65.484 -142.098,-110.3087 -228.911,-130.8843 -41.409,-9.8144 -88.387,-17.2864 -131,-11.6913 m -121,348.5756 v 121 c 0,17.706 3.57,39.782 -0.532,57 -4.713,19.782 -34.204,23.539 -49.467,14.637 -16.017,-9.342 -11.001,-34.017 -11.001,-49.637 v -143 h -58 c -7.083,0 -18.575,2.168 -24.981,-1.179 -5.497,-2.873 -5.019,-8.488 -5.019,-13.821 -0.001,-10.719 -5.161,-38.828 7.04,-43.852 6.613,-2.722 15.934,-1.148 22.96,-1.148 h 50 119 c 18.631,0 39.61,-2.732 57.999,0.148 7.344,1.15 7.001,7.995 7.001,13.852 0.001,11.402 5.143,38.555 -7.015,44.821 -7.942,4.093 -23.166,1.179 -31.985,1.179 h -76 m 339,3 c -0.968,46.892 0,93.968 0,141 0,13.854 3.547,41.008 -9.04,50.008 -14.034,10.034 -47.058,6.954 -50.631,-13.008 -3.613,-20.194 -1.329,-42.528 -1.329,-63 v -115 h -77 c -8.469,0 -24.413,2.032 -31.815,-2.318 -10.278,-6.04 -6.31,-33.639 -5.355,-43.682 0.46,-4.832 -1.253,-11.804 5.189,-12.852 20.592,-3.348 43.142,-1.148 63.981,-1.148 h 118 c 17.368,0 34.701,-0.274 52,0.911 5.492,0.376 12.939,-1.408 17.956,1.268 9.853,5.255 6.445,33.365 5.33,42.821 -0.495,4.195 0.884,10.415 -3.434,12.972 -5.592,3.311 -18.403,2.028 -24.852,2.028 h -59 m 77,364.463 c 5.19,-0.968 11.123,4.175 8.777,9.537 -2.464,5.629 -9.137,9.888 -13.777,13.6 -22.437,17.951 -46.574,34.203 -72,47.61897 -106.895,56.403 -235.915,63.416 -348,18.581 -34.973,-13.989 -67.72,-32.87797 -97,-56.60397 -5.943,-4.816 -28.511,-18.846 -23.528,-28.007 6.954,-12.784 22.422,6.929 27.532,11.85 26.081,25.111 58.92,43.98 91.996,58.24197 106.98,46.13 224.087,39.583 329,-8.58997 23.595,-10.834 46.636,-25.874 67,-41.902 8.324,-6.551 19.519,-22.371 30,-24.326 z"
       id="path169" />
    <path
       style="fill:#000000;stroke-width:0.862813"
       d="m 320.93886,599.30197 c -9.08978,-2.25233 -14.40076,-6.3815 -17.85711,-13.88351 l -1.98758,-4.31406 -0.23529,-89.21359 -0.23529,-89.21359 -39.02747,0.45556 c -27.81333,0.32466 -39.87059,0.17555 -41.96172,-0.51894 -5.54038,-1.84002 -6.22194,-3.79972 -7.13398,-20.5125 -1.30894,-23.98578 0.32381,-32.64812 6.86095,-36.39973 2.71803,-1.55986 6.37057,-1.61609 98.36066,-1.51418 52.54579,0.0582 104.19365,-0.27272 114.77302,-0.73541 20.92703,-0.91525 37.09027,-0.0772 40.40544,2.09499 2.44072,1.59922 2.71073,3.08181 3.78383,20.77649 1.40873,23.22909 -0.6805,32.50793 -8.05393,35.76955 -4.28028,1.89337 0.50991,1.80071 -59.46892,1.15039 l -48.10181,-0.52154 -0.003,62.44405 c -0.002,35.81194 0.41743,70.08757 0.98255,80.36572 1.51743,27.59811 -0.54201,40.17614 -7.59161,46.36578 -8.32395,7.30852 -21.84156,10.29553 -33.5089,7.40452 z"
       id="path365" />
    <path
       style="fill:#000000;stroke-width:0.862813"
       d="m 664.5656,602.25804 c -8.55163,-1.53 -12.975,-3.5904 -17.56752,-8.18291 -3.3096,-3.3096 -4.74352,-5.54706 -5.5833,-8.71202 -0.88607,-3.33947 -1.1938,-23.10975 -1.42566,-91.59293 l -0.29569,-87.33422 -52.3885,-0.24127 c -50.82969,-0.2341 -52.47836,-0.29334 -55.40835,-1.99092 -6.81656,-3.9494 -8.58573,-13.8224 -6.6937,-37.35462 0.92207,-11.4683 1.62191,-16.15922 2.54914,-17.08644 0.70296,-0.70297 3.76733,-1.65857 6.8097,-2.12356 6.22788,-0.95186 196.32248,-0.99417 227.41277,-0.0506 17.38158,0.52751 19.29552,0.7361 21.04847,2.29397 2.92393,2.59853 4.93217,7.92933 5.60841,14.8874 0.66952,6.88872 -1.00003,32.9442 -2.34147,36.54181 -1.70295,4.5671 -2.21451,4.62167 -45.83739,4.88977 l -40.36556,0.24809 0.0496,86.03319 c 0.0537,93.16288 0.12532,91.61918 -4.62605,99.72678 -2.49514,4.25765 -7.26652,7.56713 -13.0531,9.05379 -5.28508,1.35782 -13.35468,1.80645 -17.89181,0.9947 z"
       id="path367" />
    <path
       style="fill:#000000;stroke-width:0.862813"
       d="m 482.60554,888.69413 c -68.322,-4.29534 -131.37532,-23.64841 -187.35871,-57.50635 -10.91379,-6.6005 -21.79347,-14.21016 -38.58752,-26.98958 -22.02048,-16.75646 -26.84339,-22.50377 -23.80874,-28.37213 2.03334,-3.93205 5.45587,-4.66147 10.26229,-2.18713 1.51871,0.78183 6.83808,5.35401 11.82082,10.1604 4.98275,4.80638 11.58327,10.90573 14.66782,13.55411 32.26206,27.69993 82.06046,52.7322 132.76503,66.7373 54.02426,14.92203 115.81855,17.40312 173.1021,6.95017 44.18864,-8.06341 93.70756,-25.40249 126.86824,-44.423 22.9092,-13.1404 41.85787,-26.95264 57.02051,-41.56395 14.14724,-13.63281 19.08366,-15.95109 24.41433,-11.46562 6.67997,5.62082 1.5076,11.44762 -31.42646,35.40263 -62.25567,45.28245 -132.80934,71.61029 -211.20471,78.81325 -13.71631,1.26025 -45.06382,1.73682 -58.535,0.8899 z"
       id="path369" />
  </g>
</svg>
